<?xml version="1.0" encoding="utf-8"?>
<!-- Generator: Adobe Illustrator 23.1.0, SVG Export Plug-In . SVG Version: 6.00 Build 0)  -->
<svg version="1.1" xmlns="http://www.w3.org/2000/svg" xmlns:xlink="http://www.w3.org/1999/xlink" x="0px" y="0px"
	 viewBox="0 0 635.7 290.3" style="enable-background:new 0 0 635.7 290.3;" xml:space="preserve">
<style type="text/css">
	.st0{display:none;}
	.st1{fill:#22201E;}
	.st2{fill:#F9ED42;}
</style>
<g id="Слой_1" class="st0">
	
		<image style="display:inline;overflow:visible;" width="400" height="300" xlink:href="../../../../Desktop/400_300_1738-obschaya-kuhnya.jpg"  transform="matrix(1.9843 0 0 1.9843 -216.2885 -114.3191)">
	</image>
</g>
<g id="Слой_3">
	<g>
		<g>
			<path class="st1" d="M41.2,97.8c-19.4,53.1-31.1,111.8-17.9,167.8c1.7,7.4,3.6,16.4,10.8,20.3c5.1,2.7,10.9,1.5,15.6-1.3
				c11.6-6.7,20-19.9,27-31c7.9-12.4,14.9-25.5,20.5-39.1c6.1-14.9,10.1-30.5,13.8-46.1c4.9-20.5,8.8-41.2,11.7-62
				c1.5-10.6,2.7-21.2,3.6-31.9c0.9-9.7,1.7-19.5,0.1-29.2c-1.4-8.5-5.2-16.8-12.4-21.9c-7.5-5.3-16.7-4.7-23.6,1.1
				c-6.6,5.5-12.3,14.3-16.5,21.7c-4.6,8-7.8,17-11.2,25.6c-15.5,39-25.7,81.6-26.3,123.7c-0.3,20,1.5,46,17.9,60.1
				c12.7,10.9,28.5,9.1,41.1-1.2c6.4-5.2,11.8-12.6,13.8-20.7c1.9-7.6,1.1-15.1,5-22.2c3.6-6.5,9.2-11.4,15.4-15.2
				c8.2-5.1,0.7-18-7.6-13c-12.7,7.9-23.6,19.9-25.9,35.1c-1,6.6-0.8,12.6-4.7,18.3c-3.7,5.4-9.8,10.6-16.5,11.5
				c-4.1,0.5-8.2-1.5-11.2-4.3c-2.8-2.7-4.4-5.1-6.3-9c-3.4-7.1-5.1-16.7-5.7-25.2c-1.5-21.4,1.2-43,5.1-64
				c2.7-14.6,6.1-29.2,10.6-43.4c3.8-12,8.5-23.8,13.2-35.5c3.2-7.8,6.8-15,11.8-21.8c2.8-3.9,7.8-13.7,13.5-9
				c5.9,4.8,6.4,14,6.4,21c0,9-1,18.1-2,27.1c-2,19-4.9,37.8-8.6,56.5c-5.8,28.9-12.4,58.3-26,84.6c-6.1,11.9-13.1,23.7-21.4,34.1
				c-3.2,4.1-6.9,8.6-11.2,11.5c-0.7,0.5-1.4,0.8-2.2,1.3c1.2-0.7-1.9,1.4-0.2,0.2c-1.2,0.8,0.5-0.5,0.3,0.3
				c-0.1,0.4-0.3-0.2-0.4-0.8c-0.2-0.7-0.6-1.4-0.8-2.1c-9.4-27.9-8.3-60.2-4.8-89.1c2.2-18.2,6.7-36,12-53.5
				c2.6-8.6,5.5-17,8.5-25.5C59,92.7,44.5,88.8,41.2,97.8L41.2,97.8z"/>
		</g>
	</g>
	<g>
		<g>
			<path class="st1" d="M347.9,137.7c10.3-11.5,23.2-31.1,8.5-44.4c-7.1-6.4-17.1-8.3-26.3-9.2c-26.3-2.8-54,2.3-79.7,7.6
				c-27.8,5.7-55.4,13.1-82,22.9c-9.4,3.5-19,7.2-27.8,12.2c-2.9,1.7-5.9,3.5-8.3,5.9c-4,3.9-5.2,9.7-6,15.1
				c-1.2,7.9,0.2,16.1,1.4,23.9c0.4,2.6,1,7.6,1.4,11.6c0.7,6,1.4,11.9,1.2,17.9c-0.4,10.3-2.9,21.8-8.9,30.3
				c-5.7,8-10.9,6.8-18.8,1.4c-8-5.5-15.5,7.5-7.6,13c7.5,5.2,16.7,8.5,25.7,5c8.1-3.1,13.7-10.6,17.2-18.2
				c4.2-9.1,6.5-18.8,7.2-28.8c0.8-10.1-0.9-20.3-2.2-30.2c-0.6-5-1.4-9.4-1.7-14.1c-0.2-3-0.2-6.1-0.3-9.1c0.1,2.9,0,0.3,0.1-0.5
				c0.2-0.9,0.4-1.8,0.6-2.7c0.4-1.6,0.9-3.2,1.4-4.8c-1.4,3.8-0.7,1.4-0.5,1.2c1.2-1.1-1.5,1.3-0.2,0.3c0.4-0.3,0.8-0.8,1.2-1.1
				c1.4-1.5-0.1,0,0.3-0.2c1.3-0.9,2.6-1.8,4-2.6c3.5-2,7.1-3.7,10.7-5.3c3.9-1.7,8.3-3.5,13.5-5.4c5.8-2.2,11.7-4.2,17.6-6.1
				c13.2-4.3,26.7-8.1,40.2-11.4c26.6-6.6,53.7-12.2,81.1-13.2c6.1-0.2,12.2-0.2,18.3,0.4c3.1,0.3,8.1,1.1,12.8,2.8
				c1.7,0.6-0.7-0.6,1.4,0.6c0.8,0.5,1.6,0.9,2.4,1.4c1.5,0.9-0.8-1,0.8,0.7c0.2,0.2,0.4,0.4,0.6,0.6c1.4,1.3-0.6-1,0.1,0
				c0.3,0.4,1.3,2.4,0.7,1.2c-0.7-1.6,0.3,1.1,0.3,1c0.1,1,0.1,1.9-0.1,2.9c-1.2,6.4-6.5,12.3-10.6,17
				C330.9,134.3,341.4,144.9,347.9,137.7L347.9,137.7z"/>
		</g>
	</g>
	<g>
		<g>
			<path class="st1" d="M155.8,180.7c-5.7,10.5-10.1,21.8-12.7,33.5c-1.9,8.6-6.5,25.7,6.7,27.6c5.6,0.8,10-3.1,13.2-7.2
				c4.1-5.1,8-10.3,12-15.4c6.8-8.8,14.6-17.5,16.7-28.7c1.6-8.4-8.8-13-13.7-5.8c-5.6,8.2-9.7,17.5-11.8,27.2
				c-1.7,8.1-3.6,20.6,6.2,24.4c10.5,4.2,17.9-8.9,23.2-15.8c6.6-8.6,12.6-17.6,18.2-26.9c-4.6-1.9-9.1-3.9-13.7-5.8
				c-2.1,7.3-4.2,14.6-6.3,21.8c-1.8,6.4-3.3,13-2.2,19.7c1,6.1,4.6,12,11,13.3c3.4,0.7,6.8-0.4,9.3-2.6c0.8-0.7,1.4-1.4,2-2.2
				c1.4-1.8,1.9-1.3,0-0.9c-1.3,0-2.7,0-4,0c0.3,0.1,0.5,0.1,0.8,0.2c-1.7-3.1-3.5-6.2-5.2-9.2c-3.6,9.7-7.2,19.4-10.8,29.2
				c-3.4,9.1,11.1,13,14.5,4c3.6-9.7,7.2-19.4,10.8-29.2c1.3-3.6-1.5-8.4-5.2-9.2c-3.3-0.7-6.1-0.3-8.8,1.7c-1,0.8-1.8,1.7-2.6,2.7
				c-0.4,0.5-0.8,1-1.2,1.6c-0.3,0.2-0.2,0.1,0.4-0.5c1.3,0,2.7,0,4,0c0.4,0.7,0.5,0.7,0.1,0c-0.3-0.7-0.5-1.4-0.6-2.1
				c-0.2-1.3-0.1-3,0.1-4.3c0.4-3.1,1.4-6.2,2.3-9.2c2-7,4-14,6-20.9c2.4-8.2-9.4-13.1-13.7-5.8c-4,6.7-8.2,13.3-12.8,19.7
				c-2.1,2.9-4.2,5.8-6.4,8.6c-1.5,1.9-5,7.7-7.2,8.1c1.3,0,2.7,0,4,0c3.3,0.6,0.7,3.2,1.4,0.1c0.3-1.3,0.3-2.9,0.5-4.2
				c0.5-3,1.3-6.1,2.2-9c2-6.1,4.9-11.7,8.6-17.1c-4.6-1.9-9.1-3.9-13.7-5.8c-1.4,7.4-5.9,13.2-10.5,19c-2.4,3.1-4.8,6.2-7.2,9.3
				c-1.6,2.1-3.2,4.1-4.8,6.2c-1,1.3-3.3,3.2-3.6,4.6c-1.7,1.3-1.2,2.1,1.7,2.6c2,2.2,3,2.3,2.8,0.3c0.8-1.2,0.7-4.5,0.9-6
				c0.7-3.8,1.6-7.6,2.7-11.3c2.3-8,5.5-15.6,9.4-23C173.3,179.8,160.4,172.2,155.8,180.7L155.8,180.7z"/>
		</g>
	</g>
	<g>
		<g>
			<path class="st1" d="M262.9,171.7c-3.4-5.2-8.4-9.4-14.9-9.8c-6.9-0.4-12.7,3.5-17.4,8.1c-8.4,8.2-13.8,19.6-15.7,31.2
				c-1.3,8.2-2.1,20.6,6.4,25.4c10.6,6,24.1-7.6,29.9-15.1c6.9-9,11.3-19.9,13.9-31c2.3-9.6-10.9-12.7-14.5-4
				c-3.5,8.7-7,17.4-9.5,26.4c-1.1,4.2-2.3,8.8-1.9,13.1c0.5,5.8,4.5,10.2,10.7,10.1c5.6-0.1,9.4-4,12.1-8.5
				c1.9-3.2,3.1-7.7,6.6-9.5c-3.7-1.5-7.3-3-11-4.5c1.7,8.2,3.3,19.9,10.3,25.5c8.1,6.5,16.2-2.2,21.7-7.8
				c13.7-13.8,23.7-31.7,27.9-50.8c1.8-8,1.7-19.4-8.4-21.5c-7-1.4-13,7.7-17,12.3c-7.4,8.6-22.4,26.1-11.3,37.4
				c11.2,11.3,32.1,0.3,43.3-5.7c-3.7-2.8-7.3-5.6-11-8.5c-6.3,17.4-12.6,34.8-18.9,52.2c-3.3,9.1,11.2,13,14.5,4
				c6.3-17.4,12.6-34.8,18.9-52.2c2.4-6.5-5.7-11.3-11-8.5c-5,2.7-10.2,5.1-15.7,6.8c-2.7,0.8-5.6,1.7-8.4,1.4
				c-0.5-0.1-1.2-0.3-1.2-0.3c0-0.1,0.8,1.5,0.7,1.5c0.2,0.1-0.2-0.3,0-1.2c-0.2,0.8,0.6-1.7,0.8-2.2c0.5-1.1,1.2-2.2,1.8-3.3
				c1.6-2.7,3.4-5.2,5.4-7.7c3.8-4.8,8.1-9.3,12.4-13.7c-2.4,0.6-4.9,1.3-7.3,1.9c-4.9-0.9,0-3.3-1.5-0.4c-0.3,0.7-0.4,2.8-0.6,3.5
				c-0.6,2.8-1.4,5.7-2.3,8.4c-1.8,5.7-4.2,11.2-7.2,16.4c-2.8,5-6,9.7-9.7,14.1c-2.1,2.4-4.3,4.7-6.5,6.9c-1.1,1.1-2.3,2.2-3.5,3.2
				c-0.4,0.3-0.8,0.7-1.2,1c-1.6,1.3-1.6,1.3-0.3,0.3c1.3,0,2.7,0,4,0c1.7,0.3,1.6,2,0.3-0.7c-0.6-1.3-1.1-2.7-1.5-4.1
				c-1.3-4.1-2.2-8.2-3-12.4c-1-5-7-6.6-11-4.5c-3.5,1.8-6,4.6-8.1,7.9c-1.2,1.9-4.2,6-4.6,8.2c-1.5,1.7,0,2.2,4.6,1.5
				c-0.5-0.5-0.2-0.2,0.8,1c-0.7-0.7,0.9,2.1,0.3,0.6c0.3,0.8-0.1,1.9,0.1,0.6c0.1-0.6,0-1.3,0.1-1.8c0.1-0.8,0.1-0.7-0.1,0.3
				c0.1-0.4,0.1-0.9,0.2-1.3c0.2-0.7,0.3-1.5,0.5-2.2c0.6-2.6,1.3-5.1,2.1-7.6c2.3-7.4,5.2-14.7,8.1-21.9c-4.8-1.3-9.6-2.7-14.5-4
				c-1.9,7.7-4.5,15.2-8.7,22c-2.6,4.2-5.8,8.1-9.7,11.1c-0.4,0.3-6.5,3.8-6.5,3.5c-0.1-0.8,3.1,0.8,3.8,1.2c-0.5-0.2,0,0.1,0-0.1
				c-0.1-0.5-0.4-2.1-0.5-3.1c-0.1-1.9,0-3.9,0.2-5.8c0.6-4.5,2-9.1,3.9-13.1c2-4.3,11.6-20.6,16.7-12.9
				C255.2,187.3,268.2,179.8,262.9,171.7L262.9,171.7z"/>
		</g>
	</g>
	<g>
		<g>
			<path class="st1" d="M361.9,152.3c-3.2,24-11.5,46.7-24.6,67.1c-5.2,8.1,7.7,15.7,13,7.6c13.7-21.3,22.7-45.5,26.1-70.6
				c0.5-4-1-8-5.2-9.2C367.6,146.1,362.4,148.3,361.9,152.3L361.9,152.3z"/>
		</g>
	</g>
	<g>
		<g>
			<path class="st1" d="M376,187.9c14.7-13.9,27.6-29.3,35.1-48.2c1.5-3.8-1.7-8.2-5.2-9.2c-4.3-1.2-7.7,1.5-9.2,5.2
				c-5.1,12.5-8.8,25.5-11,38.9c-1.5,9.4,12.9,13.5,14.5,4c2.2-13.4,5.9-26.3,11-38.9c-4.8-1.3-9.6-2.7-14.5-4
				c-6.5,16.4-18.7,29.7-31.3,41.6C358.4,184,369,194.6,376,187.9L376,187.9z"/>
		</g>
	</g>
	<g>
		<g>
			<path class="st1" d="M367.2,187.8c2,12.4,4.1,24.9,6.1,37.3c0.9,5.3,9.2,7.5,12.5,3.3c7.3-9.2,14.6-18.3,21.9-27.5
				c2.5-3.2,3.1-7.5,0-10.6c-2.6-2.6-8.1-3.2-10.6,0c-7.3,9.2-14.6,18.3-21.9,27.5c4.2,1.1,8.4,2.2,12.5,3.3
				c-2-12.4-4.1-24.9-6.1-37.3C380.1,174.3,365.7,178.3,367.2,187.8L367.2,187.8z"/>
		</g>
	</g>
	<g>
		<g>
			<path class="st1" d="M413.8,150.7c-5.6,10.2-9.4,21.3-11.1,32.8c-1.2,8.6-3,27,11.5,24.2c9-1.7,17.3-11.4,22.6-18.3
				c5.9-7.7,10.4-16.8,12.5-26.3c2.1-9.4-12.2-13.4-14.5-4c-4.2,17.8-7.6,35.7-11.6,53.5c-2.5,11-5.2,22-8.3,32.8
				c-1.6,5.4-3.2,10.8-5.2,16c-0.8,2.2-1.6,4.2-2.5,6.1c-0.5,1-0.9,2-1.4,2.9c-1,1.9-2.1,1.8,0.1,0.5c1.9-0.3,3.9-0.5,5.8-0.8
				c1.5,1.2,1.3,1.1-0.4-0.5c-0.5-0.4-0.9-0.9-1.4-1.3c-1.6-1.5-3.2-3.1-4.8-4.6c-1.4-1.3-2.7-2.6-4.1-3.9c-0.7-0.7-1.4-1.3-2-2
				c-1.7-1.9-1.8-1.7-0.4,0.4c0,1.3,0,2.7,0,4c-1.1,3.1-2.9,3.7-0.2,1.3c0.3-0.3,0.6-0.6,0.9-0.9c1.1-1.1,2.1-2.3,3.2-3.5
				c4.1-4.5,8-9.1,12-13.7c15.7-18.1,31.2-36.4,46.7-54.6c6.2-7.3-4.3-18-10.6-10.6c-15.7,18.5-31.4,37-47.4,55.4
				c-3.9,4.5-7.7,8.9-11.7,13.3c-1,1.1-2.1,2.1-3,3.3c-0.2,0.3-0.6,0.5-0.8,0.8c-0.7,0.8,2.3-1.9,0.9-0.7c-1.9,1.6-3.2,2.7-4.1,5.1
				c-2.4,6.6,3.8,11,8,15c4.8,4.6,11.5,14.3,19.1,12.2c7.7-2.1,10.9-14.7,13.2-21.2c6-16.9,10.1-34.6,13.9-52.1
				c3.5-16.1,6.6-32.3,10.4-48.3c-4.8-1.3-9.6-2.7-14.5-4c-1.6,7.1-4.6,13.7-8.7,19.7c-2.1,3-4.5,5.8-7.2,8.3
				c-2.3,2.2-5.4,5.7-8.7,6.2c1.3,0,2.7,0,4,0c1.9,3.7,2.7,4.4,2.5,2c0-0.6,0-1.2,0.1-1.8c0.1-1.8,0.2-3.6,0.4-5.3
				c0.4-3.5,1.1-6.9,1.9-10.2c1.7-6.9,4.3-13.4,7.7-19.6C431.4,149.8,418.4,142.2,413.8,150.7L413.8,150.7z"/>
		</g>
	</g>
	<g>
		<g>
			<path class="st1" d="M467.5,158.9c4.5-5.8,9-11.6,13.5-17.4c-4.2-1.1-8.4-2.2-12.5-3.3c2.6,7.3,4.5,14.9,5,22.6
				c0.5,7-0.8,13.6-2.6,20.3c-1.6,5.8-3.7,11.6-6.5,17c-1,2-2.2,4.2-3.6,6c-2.2,2.9-0.7,0.3,1.3,0.5c1.3,0.3,2.5,0.7,3.8,1
				c0.6,0.4-1.8-1.6-2.2-2c-1.5-1.5-2.9-3.1-4.1-4.7c-2.5-3.3-6.4-4.9-10.3-2.7c-3.2,1.8-5.1,7-2.7,10.3c4.5,6,11.9,16.7,20.6,11.9
				c6.2-3.4,9.8-11.6,12.5-17.8c4.2-9.7,7-19.6,8.5-30.1c1.6-12-1.3-25-5.3-36.3c-1.7-4.7-8.8-8.2-12.5-3.3
				c-4.5,5.8-9,11.6-13.5,17.4c-2.5,3.2-3.1,7.5,0,10.6C459.5,161.5,465,162.1,467.5,158.9L467.5,158.9z"/>
		</g>
	</g>
	<g>
		<g>
			<path class="st1" d="M513.5,152.7c2.8-6.8,6-13.4,9.4-19.8c2.4-4.4,0.2-9.5-4.5-11c-5.1-1.7-12.2-5.6-17.6-4.2
				c-5.4,1.4-9.1,7.5-12.2,11.6c-5,6.9-9.2,14.5-12,22.5c-6.5,18.6-5.4,37.7,7.9,52.9c3.3,3.7,9.4,2.4,11.8-1.5
				c6.9-11.6,14.2-22.9,21.9-34.1c5.5-8-7.5-15.5-13-7.6c-7.7,11.1-15,22.5-21.9,34.1c3.9-0.5,7.9-1,11.8-1.5
				c-9.4-10.6-8.6-23.4-4.8-36.2c1-3.3,2.3-6.3,3.9-9.4c1.6-3.1,3.3-6,5.3-8.9c0.9-1.4,1.9-2.7,3-4.1c0.8-1,1.6-1.9,2.4-2.9
				c1.8-1.7,1.7-1.9-0.2-0.6c-1.3,0-2.7,0-4,0c4.6,0.8,9.2,2.8,13.6,4.2c-1.5-3.7-3-7.3-4.5-11c-4,7.6-7.6,15.4-10.9,23.4
				c-1.6,3.8,1.7,8.2,5.2,9.2C508.6,159.2,512,156.5,513.5,152.7L513.5,152.7z"/>
		</g>
	</g>
	<g>
		<g>
			<path class="st1" d="M525.8,129.4c-8.4,19.3-14.9,39.2-19.2,59.9c-1.9,9.4,12.5,13.4,14.5,4c4-19.3,9.8-38.2,17.7-56.3
				c1.6-3.7,1.1-8-2.7-10.3C532.9,124.8,527.4,125.7,525.8,129.4L525.8,129.4z"/>
		</g>
	</g>
	<g>
		<g>
			<path class="st1" d="M545.4,153.3c-7.1-0.9-14-0.6-21.1,0.4c-4,0.6-6.2,5.7-5.2,9.2c1.2,4.3,5.2,5.8,9.2,5.2
				c5.7-0.8,11.5-0.6,17.1,0.1c4,0.5,7.5-3.8,7.5-7.5C552.9,156.3,549.4,153.8,545.4,153.3L545.4,153.3z"/>
		</g>
	</g>
	<g>
		<g>
			<path class="st1" d="M545.5,138.9c-7.2,15.7-11.5,32.2-12.8,49.4c-0.5,6.6,8.5,9.7,12.8,5.3c7-7.1,14-14.3,20.9-21.4
				c6.8-6.9-3.8-17.5-10.6-10.6c-7,7.1-14,14.3-20.9,21.4c4.3,1.8,8.5,3.5,12.8,5.3c1.1-14.4,4.7-28.7,10.8-41.9
				c1.7-3.7,1-8-2.7-10.3C552.6,134.3,547.2,135.2,545.5,138.9L545.5,138.9z"/>
		</g>
	</g>
	<g>
		<g>
			<path class="st1" d="M554.7,182.1c1.6,2.1,3.2,4.3,4.7,6.4c3,4.1,7.8,4.9,11.8,1.5c11.6-9.7,22-20.5,31.1-32.5
				c6.6-8.6,14.3-18.7,16.3-29.6c1.3-6.9-0.5-12.6-5.7-17.3c-4.3-3.8-11.2-9.8-17.3-8.8c-4.1,0.7-6.2,3.8-8.1,7.1
				c-7.1,12.3-14,24.6-21,36.9c-2.6,4.5,0.6,11.9,6.5,11.3c15-1.6,30-3.1,45-4.7c-1.8-4.3-3.5-8.5-5.3-12.8
				c-19.2,15.4-27.7,39.1-23.2,63.1c1.1,6,8.6,6.6,12.5,3.3c8.3-7.1,16.6-14.2,25-21.3c7.3-6.3-3.3-16.8-10.6-10.6
				c-8.3,7.1-16.6,14.2-25,21.3c4.2,1.1,8.4,2.2,12.5,3.3c-3.5-19.1,4.5-36.6,19.3-48.6c4.9-3.9,1-13.5-5.3-12.8
				c-15,1.6-30,3.1-45,4.7c2.2,3.8,4.3,7.5,6.5,11.3c5.2-9.2,10.4-18.4,15.6-27.6c1.6-2.7,3.1-5.5,4.7-8.2c0.5-0.8,1.1-1.7,1.5-2.5
				c0.7-1.6,1.5-0.8-0.9,0.5c-1.3,0.3-2.5,0.7-3.8,1c0.3,0,0.6,0,0.9,0c-1.3-0.3-2.5-0.7-3.8-1c3.6,1.5,7,4,9.8,6.7
				c1.1,1,1,1.6,0.5,0.4c0.5,1.1,0.2-0.5,0-0.2c0,0,0.3,1,0.3,1.1c0.1-0.3-0.1-1.6-0.1-0.5c0,0.6,0,1.2-0.1,1.8
				c0.1-0.8,0.1-0.6-0.1,0.1c-0.8,3.2-2.2,6-3.8,8.9c-9.9,17.5-24.2,32.6-39.6,45.5c3.9,0.5,7.9,1,11.8,1.5
				c-1.6-2.1-3.2-4.3-4.7-6.4c-2.4-3.3-6.5-4.9-10.3-2.7C554.2,173.6,552.3,178.8,554.7,182.1L554.7,182.1z"/>
		</g>
	</g>
</g>
<g id="Слой_2">
	<g>
		<g>
			<path class="st2" d="M31.1,89.2C11.7,142.3-0.1,201,13.1,257.1c1.7,7.4,3.6,16.4,10.8,20.3c5.1,2.7,10.9,1.5,15.6-1.3
				c11.6-6.7,20-19.9,27-31c7.9-12.4,14.9-25.5,20.5-39.1c6.1-14.9,10.1-30.5,13.8-46.1c4.9-20.5,8.8-41.2,11.7-62
				c1.5-10.6,2.7-21.2,3.6-31.9c0.9-9.7,1.7-19.5,0.1-29.2c-1.4-8.5-5.2-16.8-12.4-21.9c-7.5-5.3-16.7-4.7-23.6,1.1
				c-6.6,5.5-12.3,14.3-16.5,21.7c-4.6,8-7.8,17-11.2,25.6C37,102.3,26.8,144.9,26.2,187c-0.3,20,1.5,46,17.9,60.1
				c12.7,10.9,28.5,9.1,41.1-1.2c6.4-5.2,11.8-12.6,13.8-20.7c1.9-7.6,1.1-15.1,5-22.2c3.6-6.5,9.2-11.4,15.4-15.2
				c8.2-5.1,0.7-18-7.6-13c-12.7,7.9-23.6,19.9-25.9,35.1c-1,6.6-0.8,12.6-4.7,18.3c-3.7,5.4-9.8,10.6-16.5,11.5
				c-4.1,0.5-8.2-1.5-11.2-4.3c-2.8-2.7-4.4-5.1-6.3-9c-3.4-7.1-5.1-16.7-5.7-25.2c-1.5-21.4,1.2-43,5.1-64
				c2.7-14.6,6.1-29.2,10.6-43.4c3.8-12,8.5-23.8,13.2-35.5c3.2-7.8,6.8-15,11.8-21.8c2.8-3.9,7.8-13.7,13.5-9
				c5.9,4.8,6.4,14,6.4,21c0,9-1,18.1-2,27.1c-2,19-4.9,37.8-8.6,56.5c-5.8,28.9-12.4,58.3-26,84.6c-6.1,11.9-13.1,23.7-21.4,34.1
				c-3.2,4.1-6.9,8.6-11.2,11.5c-0.7,0.5-1.4,0.8-2.2,1.3c1.2-0.7-1.9,1.4-0.2,0.2c-1.2,0.8,0.5-0.5,0.3,0.3
				c-0.1,0.4-0.3-0.2-0.4-0.8c-0.2-0.7-0.6-1.4-0.8-2.1c-9.4-27.9-8.3-60.2-4.8-89.1c2.2-18.2,6.7-36,12-53.5
				c2.6-8.6,5.5-17,8.5-25.5C48.8,84.2,34.3,80.2,31.1,89.2L31.1,89.2z"/>
		</g>
	</g>
	<g>
		<g>
			<path class="st2" d="M337.7,129.1c10.3-11.5,23.2-31.1,8.5-44.4c-7.1-6.4-17.1-8.3-26.3-9.2c-26.3-2.8-54,2.3-79.7,7.6
				c-27.8,5.7-55.4,13.1-82,22.9c-9.4,3.5-19,7.2-27.8,12.2c-2.9,1.7-5.9,3.5-8.3,5.9c-4,3.9-5.2,9.7-6,15.1
				c-1.2,7.9,0.2,16.1,1.4,23.9c0.4,2.6,1,7.6,1.4,11.6c0.7,6,1.4,11.9,1.2,17.9c-0.4,10.3-2.9,21.8-8.9,30.3
				c-5.7,8-10.9,6.8-18.8,1.4c-8-5.5-15.5,7.5-7.6,13c7.5,5.2,16.7,8.5,25.7,5c8.1-3.1,13.7-10.6,17.2-18.2
				c4.2-9.1,6.5-18.8,7.2-28.8c0.8-10.1-0.9-20.3-2.2-30.2c-0.6-5-1.4-9.4-1.7-14.1c-0.2-3-0.2-6.1-0.3-9.1c0.1,2.9,0,0.3,0.1-0.5
				c0.2-0.9,0.4-1.8,0.6-2.7c0.4-1.6,0.9-3.2,1.4-4.8c-1.4,3.8-0.7,1.4-0.5,1.2c1.2-1.1-1.5,1.3-0.2,0.3c0.4-0.3,0.8-0.8,1.2-1.1
				c1.4-1.5-0.1,0,0.3-0.2c1.3-0.9,2.6-1.8,4-2.6c3.5-2,7.1-3.7,10.7-5.3c3.9-1.7,8.3-3.5,13.5-5.4c5.8-2.2,11.7-4.2,17.6-6.1
				c13.2-4.3,26.7-8.1,40.2-11.4c26.6-6.6,53.7-12.2,81.1-13.2c6.1-0.2,12.2-0.2,18.3,0.4c3.1,0.3,8.1,1.1,12.8,2.8
				c1.7,0.6-0.7-0.6,1.4,0.6c0.8,0.5,1.6,0.9,2.4,1.4c1.5,0.9-0.8-1,0.8,0.7c0.2,0.2,0.4,0.4,0.6,0.6c1.4,1.3-0.6-1,0.1,0
				c0.3,0.4,1.3,2.4,0.7,1.2c-0.7-1.6,0.3,1.1,0.3,1c0.1,1,0.1,1.9-0.1,2.9c-1.2,6.4-6.5,12.3-10.6,17
				C320.7,125.7,331.2,136.4,337.7,129.1L337.7,129.1z"/>
		</g>
	</g>
	<g>
		<g>
			<path class="st2" d="M145.6,172.1c-5.7,10.5-10.1,21.8-12.7,33.5c-1.9,8.6-6.5,25.7,6.7,27.6c5.6,0.8,10-3.1,13.2-7.2
				c4.1-5.1,8-10.3,12-15.4c6.8-8.8,14.6-17.5,16.7-28.7c1.6-8.4-8.8-13-13.7-5.8c-5.6,8.2-9.7,17.5-11.8,27.2
				c-1.7,8.1-3.6,20.6,6.2,24.4c10.5,4.2,17.9-8.9,23.2-15.8c6.6-8.6,12.6-17.6,18.2-26.9c-4.6-1.9-9.1-3.9-13.7-5.8
				c-2.1,7.3-4.2,14.6-6.3,21.8c-1.8,6.4-3.3,13-2.2,19.7c1,6.1,4.6,12,11,13.3c3.4,0.7,6.8-0.4,9.3-2.6c0.8-0.7,1.4-1.4,2-2.2
				c1.4-1.8,1.9-1.3,0-0.9c-1.3,0-2.7,0-4,0c0.3,0.1,0.5,0.1,0.8,0.2c-1.7-3.1-3.5-6.2-5.2-9.2c-3.6,9.7-7.2,19.4-10.8,29.2
				c-3.4,9.1,11.1,13,14.5,4c3.6-9.7,7.2-19.4,10.8-29.2c1.3-3.6-1.5-8.4-5.2-9.2c-3.3-0.7-6.1-0.3-8.8,1.7c-1,0.8-1.8,1.7-2.6,2.7
				c-0.4,0.5-0.8,1-1.2,1.6c-0.3,0.2-0.2,0.1,0.4-0.5c1.3,0,2.7,0,4,0c0.4,0.7,0.5,0.7,0.1,0c-0.3-0.7-0.5-1.4-0.6-2.1
				c-0.2-1.3-0.1-3,0.1-4.3c0.4-3.1,1.4-6.2,2.3-9.2c2-7,4-14,6-20.9c2.4-8.2-9.4-13.1-13.7-5.8c-4,6.7-8.2,13.3-12.8,19.7
				c-2.1,2.9-4.2,5.8-6.4,8.6c-1.5,1.9-5,7.7-7.2,8.1c1.3,0,2.7,0,4,0c3.3,0.6,0.7,3.2,1.4,0.1c0.3-1.3,0.3-2.9,0.5-4.2
				c0.5-3,1.3-6.1,2.2-9c2-6.1,4.9-11.7,8.6-17.1c-4.6-1.9-9.1-3.9-13.7-5.8c-1.4,7.4-5.9,13.2-10.5,19c-2.4,3.1-4.8,6.2-7.2,9.3
				c-1.6,2.1-3.2,4.1-4.8,6.2c-1,1.3-3.3,3.2-3.6,4.6c-1.7,1.3-1.2,2.1,1.7,2.6c2,2.2,3,2.3,2.8,0.3c0.8-1.2,0.7-4.5,0.9-6
				c0.7-3.8,1.6-7.6,2.7-11.3c2.3-8,5.5-15.6,9.4-23C163.1,171.2,150.2,163.6,145.6,172.1L145.6,172.1z"/>
		</g>
	</g>
	<g>
		<g>
			<path class="st2" d="M252.7,163.1c-3.4-5.2-8.4-9.4-14.9-9.8c-6.9-0.4-12.7,3.5-17.4,8.1c-8.4,8.2-13.8,19.6-15.7,31.2
				c-1.3,8.2-2.1,20.6,6.4,25.4c10.6,6,24.1-7.6,29.9-15.1c6.9-9,11.3-19.9,13.9-31c2.3-9.6-10.9-12.7-14.5-4
				c-3.5,8.7-7,17.4-9.5,26.4c-1.1,4.2-2.3,8.8-1.9,13.1c0.5,5.8,4.5,10.2,10.7,10.1c5.6-0.1,9.4-4,12.1-8.5
				c1.9-3.2,3.1-7.7,6.6-9.5c-3.7-1.5-7.3-3-11-4.5c1.7,8.2,3.3,19.9,10.3,25.5c8.1,6.5,16.2-2.2,21.7-7.8
				c13.7-13.8,23.7-31.7,27.9-50.8c1.8-8,1.7-19.4-8.4-21.5c-7-1.4-13,7.7-17,12.3c-7.4,8.6-22.4,26.1-11.3,37.4
				c11.2,11.3,32.1,0.3,43.3-5.7c-3.7-2.8-7.3-5.6-11-8.5c-6.3,17.4-12.6,34.8-18.9,52.2c-3.3,9.1,11.2,13,14.5,4
				c6.3-17.4,12.6-34.8,18.9-52.2c2.4-6.5-5.7-11.3-11-8.5c-5,2.7-10.2,5.1-15.7,6.8c-2.7,0.8-5.6,1.7-8.4,1.4
				c-0.5-0.1-1.2-0.3-1.2-0.3c0-0.1,0.8,1.5,0.7,1.5c0.2,0.1-0.2-0.3,0-1.2c-0.2,0.8,0.6-1.7,0.8-2.2c0.5-1.1,1.2-2.2,1.8-3.3
				c1.6-2.7,3.4-5.2,5.4-7.7c3.8-4.8,8.1-9.3,12.4-13.7c-2.4,0.6-4.9,1.3-7.3,1.9c-4.9-0.9,0-3.3-1.5-0.4c-0.3,0.7-0.4,2.8-0.6,3.5
				c-0.6,2.8-1.4,5.7-2.3,8.4c-1.8,5.7-4.2,11.2-7.2,16.4c-2.8,5-6,9.7-9.7,14.1c-2.1,2.4-4.3,4.7-6.5,6.9c-1.1,1.1-2.3,2.2-3.5,3.2
				c-0.4,0.3-0.8,0.7-1.2,1c-1.6,1.3-1.6,1.3-0.3,0.3c1.3,0,2.7,0,4,0c1.7,0.3,1.6,2,0.3-0.7c-0.6-1.3-1.1-2.7-1.5-4.1
				c-1.3-4.1-2.2-8.2-3-12.4c-1-5-7-6.6-11-4.5c-3.5,1.8-6,4.6-8.1,7.9c-1.2,1.9-4.2,6-4.6,8.2c-1.5,1.7,0,2.2,4.6,1.5
				c-0.5-0.5-0.2-0.2,0.8,1c-0.7-0.7,0.9,2.1,0.3,0.6c0.3,0.8-0.1,1.9,0.1,0.6c0.1-0.6,0-1.3,0.1-1.8c0.1-0.8,0.1-0.7-0.1,0.3
				c0.1-0.4,0.1-0.9,0.2-1.3c0.2-0.7,0.3-1.5,0.5-2.2c0.6-2.6,1.3-5.1,2.1-7.6c2.3-7.4,5.2-14.7,8.1-21.9c-4.8-1.3-9.6-2.7-14.5-4
				c-1.9,7.7-4.5,15.2-8.7,22c-2.6,4.2-5.8,8.1-9.7,11.1c-0.4,0.3-6.5,3.8-6.5,3.5c-0.1-0.8,3.1,0.8,3.8,1.2c-0.5-0.2,0,0.1,0-0.1
				c-0.1-0.5-0.4-2.1-0.5-3.1c-0.1-1.9,0-3.9,0.2-5.8c0.6-4.5,2-9.1,3.9-13.1c2-4.3,11.6-20.6,16.7-12.9
				C245,178.7,258,171.2,252.7,163.1L252.7,163.1z"/>
		</g>
	</g>
	<g>
		<g>
			<path class="st2" d="M351.7,143.7c-3.2,24-11.5,46.7-24.6,67.1c-5.2,8.1,7.7,15.7,13,7.6c13.7-21.3,22.7-45.5,26.1-70.6
				c0.5-4-1-8-5.2-9.2C357.4,137.5,352.2,139.7,351.7,143.7L351.7,143.7z"/>
		</g>
	</g>
	<g>
		<g>
			<path class="st2" d="M365.8,179.3c14.7-13.9,27.6-29.3,35.1-48.2c1.5-3.8-1.7-8.2-5.2-9.2c-4.3-1.2-7.7,1.5-9.2,5.2
				c-5.1,12.5-8.8,25.5-11,38.9c-1.5,9.4,12.9,13.5,14.5,4c2.2-13.4,5.9-26.3,11-38.9c-4.8-1.3-9.6-2.7-14.5-4
				c-6.5,16.4-18.7,29.7-31.3,41.6C348.2,175.4,358.8,186,365.8,179.3L365.8,179.3z"/>
		</g>
	</g>
	<g>
		<g>
			<path class="st2" d="M357.1,179.2c2,12.4,4.1,24.9,6.1,37.3c0.9,5.3,9.2,7.5,12.5,3.3c7.3-9.2,14.6-18.3,21.9-27.5
				c2.5-3.2,3.1-7.5,0-10.6c-2.6-2.6-8.1-3.2-10.6,0c-7.3,9.2-14.6,18.3-21.9,27.5c4.2,1.1,8.4,2.2,12.5,3.3
				c-2-12.4-4.1-24.9-6.1-37.3C370,165.7,355.5,169.7,357.1,179.2L357.1,179.2z"/>
		</g>
	</g>
	<g>
		<g>
			<path class="st2" d="M403.6,142.1c-5.6,10.2-9.4,21.3-11.1,32.8c-1.2,8.6-3,27,11.5,24.2c9-1.7,17.3-11.4,22.6-18.3
				c5.9-7.7,10.4-16.8,12.5-26.3c2.1-9.4-12.2-13.4-14.5-4c-4.2,17.8-7.6,35.7-11.6,53.5c-2.5,11-5.2,22-8.3,32.8
				c-1.6,5.4-3.2,10.8-5.2,16c-0.8,2.2-1.6,4.2-2.5,6.1c-0.5,1-0.9,2-1.4,2.9c-1,1.9-2.1,1.8,0.1,0.5c1.9-0.3,3.9-0.5,5.8-0.8
				c1.5,1.2,1.3,1.1-0.4-0.5c-0.5-0.4-0.9-0.9-1.4-1.3c-1.6-1.5-3.2-3.1-4.8-4.6c-1.4-1.3-2.7-2.6-4.1-3.9c-0.7-0.7-1.4-1.3-2-2
				c-1.7-1.9-1.8-1.7-0.4,0.4c0,1.3,0,2.7,0,4c-1.1,3.1-2.9,3.7-0.2,1.3c0.3-0.3,0.6-0.6,0.9-0.9c1.1-1.1,2.1-2.3,3.2-3.5
				c4.1-4.5,8-9.1,12-13.7c15.7-18.1,31.2-36.4,46.7-54.6c6.2-7.3-4.3-18-10.6-10.6c-15.7,18.5-31.4,37-47.4,55.4
				c-3.9,4.5-7.7,8.9-11.7,13.3c-1,1.1-2.1,2.1-3,3.3c-0.2,0.3-0.6,0.5-0.8,0.8c-0.7,0.8,2.3-1.9,0.9-0.7c-1.9,1.6-3.2,2.7-4.1,5.1
				c-2.4,6.6,3.8,11,8,15c4.8,4.6,11.5,14.3,19.1,12.2c7.7-2.1,10.9-14.7,13.2-21.2c6-16.9,10.1-34.6,13.9-52.1
				c3.5-16.1,6.6-32.3,10.4-48.3c-4.8-1.3-9.6-2.7-14.5-4c-1.6,7.1-4.6,13.7-8.7,19.7c-2.1,3-4.5,5.8-7.2,8.3
				c-2.3,2.2-5.4,5.7-8.7,6.2c1.3,0,2.7,0,4,0c1.9,3.7,2.7,4.4,2.5,2c0-0.6,0-1.2,0.1-1.8c0.1-1.8,0.2-3.6,0.4-5.3
				c0.4-3.5,1.1-6.9,1.9-10.2c1.7-6.9,4.3-13.4,7.7-19.6C421.2,141.2,408.3,133.6,403.6,142.1L403.6,142.1z"/>
		</g>
	</g>
	<g>
		<g>
			<path class="st2" d="M457.3,150.3c4.5-5.8,9-11.6,13.5-17.4c-4.2-1.1-8.4-2.2-12.5-3.3c2.6,7.3,4.5,14.9,5,22.6
				c0.5,7-0.8,13.6-2.6,20.3c-1.6,5.8-3.7,11.6-6.5,17c-1,2-2.2,4.2-3.6,6c-2.2,2.9-0.7,0.3,1.3,0.5c1.3,0.3,2.5,0.7,3.8,1
				c0.6,0.4-1.8-1.6-2.2-2c-1.5-1.5-2.9-3.1-4.1-4.7c-2.5-3.3-6.4-4.9-10.3-2.7c-3.2,1.8-5.1,7-2.7,10.3c4.5,6,11.9,16.7,20.6,11.9
				c6.2-3.4,9.8-11.6,12.5-17.8c4.2-9.7,7-19.6,8.5-30.1c1.6-12-1.3-25-5.3-36.3c-1.7-4.7-8.8-8.2-12.5-3.3
				c-4.5,5.8-9,11.6-13.5,17.4c-2.5,3.2-3.1,7.5,0,10.6C449.3,153,454.8,153.5,457.3,150.3L457.3,150.3z"/>
		</g>
	</g>
	<g>
		<g>
			<path class="st2" d="M503.3,144.2c2.8-6.8,6-13.4,9.4-19.8c2.4-4.4,0.2-9.5-4.5-11c-5.1-1.7-12.2-5.6-17.6-4.2
				c-5.4,1.4-9.1,7.5-12.2,11.6c-5,6.9-9.2,14.5-12,22.5c-6.5,18.6-5.4,37.7,7.9,52.9c3.3,3.7,9.4,2.4,11.8-1.5
				c6.9-11.6,14.2-22.9,21.9-34.1c5.5-8-7.5-15.5-13-7.6c-7.7,11.1-15,22.5-21.9,34.1c3.9-0.5,7.9-1,11.8-1.5
				c-9.4-10.6-8.6-23.4-4.8-36.2c1-3.3,2.3-6.3,3.9-9.4c1.6-3.1,3.3-6,5.3-8.9c0.9-1.4,1.9-2.7,3-4.1c0.8-1,1.6-1.9,2.4-2.9
				c1.8-1.7,1.7-1.9-0.2-0.6c-1.3,0-2.7,0-4,0c4.6,0.8,9.2,2.8,13.6,4.2c-1.5-3.7-3-7.3-4.5-11c-4,7.6-7.6,15.4-10.9,23.4
				c-1.6,3.8,1.7,8.2,5.2,9.2C498.4,150.6,501.8,147.9,503.3,144.2L503.3,144.2z"/>
		</g>
	</g>
	<g>
		<g>
			<path class="st2" d="M515.6,120.8c-8.4,19.3-14.9,39.2-19.2,59.9c-1.9,9.4,12.5,13.4,14.5,4c4-19.3,9.8-38.2,17.7-56.3
				c1.6-3.7,1.1-8-2.7-10.3C522.7,116.2,517.2,117.1,515.6,120.8L515.6,120.8z"/>
		</g>
	</g>
	<g>
		<g>
			<path class="st2" d="M535.2,144.7c-7.1-0.9-14-0.6-21.1,0.4c-4,0.6-6.2,5.7-5.2,9.2c1.2,4.3,5.2,5.8,9.2,5.2
				c5.7-0.8,11.5-0.6,17.1,0.1c4,0.5,7.5-3.8,7.5-7.5C542.7,147.7,539.3,145.2,535.2,144.7L535.2,144.7z"/>
		</g>
	</g>
	<g>
		<g>
			<path class="st2" d="M535.3,130.3c-7.2,15.7-11.5,32.2-12.8,49.4c-0.5,6.6,8.5,9.7,12.8,5.3c7-7.1,14-14.3,20.9-21.4
				c6.8-6.9-3.8-17.5-10.6-10.6c-7,7.1-14,14.3-20.9,21.4c4.3,1.8,8.5,3.5,12.8,5.3c1.1-14.4,4.7-28.7,10.8-41.9
				c1.7-3.7,1-8-2.7-10.3C542.4,125.7,537,126.6,535.3,130.3L535.3,130.3z"/>
		</g>
	</g>
	<g>
		<g>
			<path class="st2" d="M544.5,173.5c1.6,2.1,3.2,4.3,4.7,6.4c3,4.1,7.8,4.9,11.8,1.5c11.6-9.7,22-20.5,31.1-32.5
				c6.6-8.6,14.3-18.7,16.3-29.6c1.3-6.9-0.5-12.6-5.7-17.3c-4.3-3.8-11.2-9.8-17.3-8.8c-4.1,0.7-6.2,3.8-8.1,7.1
				c-7.1,12.3-14,24.6-21,36.9c-2.6,4.5,0.6,11.9,6.5,11.3c15-1.6,30-3.1,45-4.7c-1.8-4.3-3.5-8.5-5.3-12.8
				c-19.2,15.4-27.7,39.1-23.2,63.1c1.1,6,8.6,6.6,12.5,3.3c8.3-7.1,16.6-14.2,25-21.3c7.3-6.3-3.3-16.8-10.6-10.6
				c-8.3,7.1-16.6,14.2-25,21.3c4.2,1.1,8.4,2.2,12.5,3.3c-3.5-19.1,4.5-36.6,19.3-48.6c4.9-3.9,1-13.5-5.3-12.8
				c-15,1.6-30,3.1-45,4.7c2.2,3.8,4.3,7.5,6.5,11.3c5.2-9.2,10.4-18.4,15.6-27.6c1.6-2.7,3.1-5.5,4.7-8.2c0.5-0.8,1.1-1.7,1.5-2.5
				c0.7-1.6,1.5-0.8-0.9,0.5c-1.3,0.3-2.5,0.7-3.8,1c0.3,0,0.6,0,0.9,0c-1.3-0.3-2.5-0.7-3.8-1c3.6,1.5,7,4,9.8,6.7
				c1.1,1,1,1.6,0.5,0.4c0.5,1.1,0.2-0.5,0-0.2c0,0,0.3,1,0.3,1.1c0.1-0.3-0.1-1.6-0.1-0.5c0,0.6,0,1.2-0.1,1.8
				c0.1-0.8,0.1-0.6-0.1,0.1c-0.8,3.2-2.2,6-3.8,8.9c-9.9,17.5-24.2,32.6-39.6,45.5c3.9,0.5,7.9,1,11.8,1.5
				c-1.6-2.1-3.2-4.3-4.7-6.4c-2.4-3.3-6.5-4.9-10.3-2.7C544,165.1,542.1,170.2,544.5,173.5L544.5,173.5z"/>
		</g>
	</g>
</g>
</svg>
